<svg width="25" height="24" viewBox="0 0 25 24" fill="none" xmlns="http://www.w3.org/2000/svg">
<path d="M12.0036 18.2602C13.3014 18.2602 14.3536 17.2081 14.3536 15.9102C14.3536 14.6124 13.3014 13.5602 12.0036 13.5602C10.7057 13.5602 9.65356 14.6124 9.65356 15.9102C9.65356 17.2081 10.7057 18.2602 12.0036 18.2602Z" fill="black"/>
<path d="M21.6573 18.2602C22.9551 18.2602 24.0073 17.2081 24.0073 15.9102C24.0073 14.6124 22.9551 13.5602 21.6573 13.5602C20.3594 13.5602 19.3073 14.6124 19.3073 15.9102C19.3073 17.2081 20.3594 18.2602 21.6573 18.2602Z" fill="black"/>
<path d="M2.35 18.2602C3.64787 18.2602 4.7 17.2081 4.7 15.9102C4.7 14.6124 3.64787 13.5602 2.35 13.5602C1.05213 13.5602 0 14.6124 0 15.9102C0 17.2081 1.05213 18.2602 2.35 18.2602Z" fill="black"/>
<path d="M12.0036 10.3951C13.3014 10.3951 14.3536 9.343 14.3536 8.04513C14.3536 6.74726 13.3014 5.69513 12.0036 5.69513C10.7057 5.69513 9.65356 6.74726 9.65356 8.04513C9.65356 9.343 10.7057 10.3951 12.0036 10.3951Z" fill="black"/>
<path d="M21.6573 10.3951C22.9551 10.3951 24.0073 9.343 24.0073 8.04513C24.0073 6.74726 22.9551 5.69513 21.6573 5.69513C20.3594 5.69513 19.3073 6.74726 19.3073 8.04513C19.3073 9.343 20.3594 10.3951 21.6573 10.3951Z" fill="black"/>
<path d="M2.35 10.3951C3.64787 10.3951 4.7 9.343 4.7 8.04513C4.7 6.74726 3.64787 5.69513 2.35 5.69513C1.05213 5.69513 0 6.74726 0 8.04513C0 9.343 1.05213 10.3951 2.35 10.3951Z" fill="black"/>
</svg>
