<svg width="24" height="24" viewBox="0 0 24 24" fill="none" xmlns="http://www.w3.org/2000/svg">
<path d="M14.8362 4.2474L11.2003 20.3132C11.14 20.5795 10.9783 20.8114 10.7507 20.9578C10.523 21.1043 10.2482 21.1533 9.98652 21.0941C9.72488 21.0348 9.4979 20.8723 9.3555 20.6421C9.21311 20.4119 9.16697 20.133 9.22724 19.8667L12.8631 3.80088C12.9234 3.53457 13.0851 3.30269 13.3128 3.15625C13.5404 3.00982 13.8152 2.96081 14.0769 3.02003C14.3385 3.07924 14.5655 3.24182 14.7079 3.47199C14.8503 3.70217 14.8964 3.98109 14.8362 4.2474Z" fill="black"/>
<path d="M17.6632 17.4455C17.513 17.4405 17.3654 17.4048 17.2295 17.3407C17.0936 17.2766 16.9722 17.1854 16.8728 17.0727C16.6634 16.863 16.5457 16.5787 16.5457 16.2823C16.5457 15.9859 16.6634 15.7017 16.8728 15.492L21.3466 11.0182L16.8728 6.54444C16.7843 6.32968 16.7649 6.09271 16.8173 5.86642C16.8696 5.64013 16.9911 5.43574 17.1649 5.28164C17.3386 5.12753 17.5561 5.03135 17.787 5.00645C18.0179 4.98154 18.2509 5.02915 18.4535 5.14266L23.6729 10.3621C23.8824 10.5718 24 10.856 24 11.1524C24 11.4488 23.8824 11.7331 23.6729 11.9428L18.4535 17.0727C18.3541 17.1854 18.2327 17.2766 18.0968 17.3407C17.9609 17.4048 17.8134 17.4405 17.6632 17.4455V17.4455Z" fill="black"/>
<path d="M6.33683 17.4455C6.48701 17.4405 6.63458 17.4048 6.77049 17.3407C6.90639 17.2766 7.02778 17.1854 7.12719 17.0727C7.33664 16.863 7.45428 16.5787 7.45428 16.2823C7.45428 15.9859 7.33664 15.7017 7.12719 15.492L2.65343 11.0182L7.12719 6.54444C7.21566 6.32968 7.23507 6.09271 7.18274 5.86642C7.1304 5.64013 7.00891 5.43574 6.83513 5.28164C6.66135 5.12753 6.44391 5.03135 6.21298 5.00645C5.98205 4.98154 5.7491 5.02915 5.54646 5.14266L0.327076 10.3621C0.117629 10.5718 -1.57164e-05 10.856 -1.57164e-05 11.1524C-1.57164e-05 11.4488 0.117629 11.7331 0.327076 11.9428L5.54646 17.0727C5.64588 17.1854 5.76726 17.2766 5.90317 17.3407C6.03908 17.4048 6.18665 17.4405 6.33683 17.4455V17.4455Z" fill="black"/>
</svg>
