<svg width="25" height="24" viewBox="0 0 25 24" fill="none" xmlns="http://www.w3.org/2000/svg">
<path d="M6.46141 10.9506C6.54793 10.9855 6.64053 11.0022 6.73361 10.9998C6.82669 10.9973 6.91831 10.9756 7.0029 10.9361C7.08749 10.8966 7.16329 10.8401 7.22572 10.77C7.28814 10.6998 7.33587 10.6176 7.36603 10.5281L7.61028 9.82102H9.41952L9.66377 10.5281C9.71069 10.6628 9.79771 10.7794 9.91279 10.8617C10.0279 10.9439 10.1653 10.9878 10.3061 10.9873C10.3809 11.0005 10.4574 11.0005 10.5322 10.9873C10.6211 10.9578 10.703 10.91 10.7728 10.8469C10.8426 10.7837 10.8988 10.7066 10.9379 10.6204C10.977 10.5342 10.9981 10.4407 10.9999 10.3458C11.0017 10.2509 10.9841 10.1567 10.9483 10.069L9.40143 5.67023C9.34006 5.47562 9.21937 5.30584 9.05677 5.18538C8.89418 5.06491 8.6981 5 8.49681 5C8.29552 5 8.09943 5.06491 7.93684 5.18538C7.77425 5.30584 7.65356 5.47562 7.59219 5.67023L6.04529 10.0506C6.01242 10.1373 5.99717 10.2298 6.00043 10.3226C6.0037 10.4154 6.02542 10.5066 6.06429 10.5907C6.10317 10.6747 6.15838 10.75 6.22663 10.8118C6.29487 10.8736 6.37474 10.9208 6.46141 10.9506V10.9506ZM8.93103 8.44355H8.02641L8.46062 7.20382L8.93103 8.44355Z" fill="black"/>
<path d="M17.9019 5.65538C17.8158 5.46176 17.6701 5.29619 17.4832 5.17956C17.2963 5.06293 17.0765 5.00046 16.8515 5H13.7695C13.5724 5 13.3834 5.07294 13.244 5.20277C13.1046 5.33261 13.0263 5.5087 13.0263 5.69231C13.0263 5.87592 13.1046 6.05201 13.244 6.18184C13.3834 6.31168 13.5724 6.38462 13.7695 6.38462H16.138L13.3335 9.10769C13.168 9.26953 13.058 9.47357 13.0174 9.69384C12.9768 9.91411 13.0075 10.1406 13.1056 10.3446C13.1834 10.5325 13.3188 10.6948 13.4951 10.8114C13.6713 10.9279 13.8805 10.9935 14.0966 11H17.2379C17.4351 11 17.6241 10.9271 17.7635 10.7972C17.9029 10.6674 17.9812 10.4913 17.9812 10.3077C17.9812 10.1241 17.9029 9.94799 17.7635 9.81816C17.6241 9.68832 17.4351 9.61538 17.2379 9.61538H14.8695L17.6542 6.91077C17.8223 6.7468 17.9354 6.54061 17.9794 6.31756C18.0234 6.09452 17.9965 5.86435 17.9019 5.65538V5.65538Z" fill="black"/>
<path d="M7.3125 15H18.6875C19.0356 15 19.3694 14.8946 19.6156 14.7071C19.8617 14.5196 20 14.2652 20 14C20 13.7348 19.8617 13.4804 19.6156 13.2929C19.3694 13.1054 19.0356 13 18.6875 13H7.3125C6.9644 13 6.63056 13.1054 6.38442 13.2929C6.13828 13.4804 6 13.7348 6 14C6 14.2652 6.13828 14.5196 6.38442 14.7071C6.63056 14.8946 6.9644 15 7.3125 15Z" fill="black"/>
<path d="M6.9375 19H15.0625C15.3111 19 15.5496 18.8946 15.7254 18.7071C15.9012 18.5196 16 18.2652 16 18C16 17.7348 15.9012 17.4804 15.7254 17.2929C15.5496 17.1054 15.3111 17 15.0625 17H6.9375C6.68886 17 6.4504 17.1054 6.27459 17.2929C6.09877 17.4804 6 17.7348 6 18C6 18.2652 6.09877 18.5196 6.27459 18.7071C6.4504 18.8946 6.68886 19 6.9375 19Z" fill="black"/>
<path fill-rule="evenodd" clip-rule="evenodd" d="M21.2195 24H21.2286C22.2288 24 23.1881 23.6027 23.8954 22.8954C24.6027 22.1881 25 21.2288 25 20.2286V3.77144C25 2.77119 24.6027 1.81192 23.8954 1.10464C23.1881 0.397355 22.2288 9.62284e-06 21.2286 9.62284e-06H21.2233C21.2221 3.2262e-06 21.2208 0 21.2195 0L4.76233 9.53674e-06C3.76209 9.53674e-06 2.80281 0.397355 2.09553 1.10464C1.38825 1.81192 0.990906 2.77119 0.990906 3.77144V20.2286C0.990906 21.2288 1.38825 22.1881 2.09553 22.8954C2.80281 23.6027 3.76209 24 4.76233 24H13H21.2195ZM13 21.9429H21.2195C21.6741 21.9429 22.1102 21.7623 22.4317 21.4408C22.7532 21.1193 22.9338 20.6832 22.9338 20.2286V12C22.9338 11.9541 22.9368 11.9085 22.9429 11.8635V3.77144C22.9429 3.31678 22.7622 2.88075 22.4408 2.55926C22.1511 2.2696 21.7685 2.09431 21.363 2.06243C21.3021 2.0592 21.253 2.05715 21.2195 2.05715H4.77143C4.31677 2.05715 3.88074 2.23776 3.55925 2.55926C3.23775 2.88075 3.05714 3.31678 3.05714 3.77144V12C3.05714 12.0459 3.05407 12.0915 3.04805 12.1365V20.2286C3.04805 20.6832 3.22866 21.1193 3.55015 21.4408C3.87164 21.7623 4.30768 21.9429 4.76233 21.9429H13Z" fill="black"/>
</svg>
