<svg width="25" height="24" viewBox="0 0 25 24" fill="none" xmlns="http://www.w3.org/2000/svg">
<path d="M7.46141 14.9506C7.54793 14.9855 7.64053 15.0022 7.73361 14.9998C7.82669 14.9973 7.91831 14.9756 8.0029 14.9361C8.08749 14.8966 8.16329 14.8401 8.22572 14.77C8.28814 14.6998 8.33587 14.6176 8.36603 14.5281L8.61028 13.821H10.4195L10.6638 14.5281C10.7107 14.6628 10.7977 14.7794 10.9128 14.8617C11.0279 14.9439 11.1653 14.9878 11.3061 14.9873C11.3809 15.0005 11.4574 15.0005 11.5322 14.9873C11.6211 14.9578 11.703 14.91 11.7728 14.8469C11.8426 14.7837 11.8988 14.7066 11.9379 14.6204C11.977 14.5342 11.9981 14.4407 11.9999 14.3458C12.0017 14.2509 11.9841 14.1567 11.9483 14.069L10.4014 9.67023C10.3401 9.47562 10.2194 9.30584 10.0568 9.18538C9.89418 9.06491 9.6981 9 9.49681 9C9.29552 9 9.09943 9.06491 8.93684 9.18538C8.77425 9.30584 8.65356 9.47562 8.59219 9.67023L7.04529 14.0506C7.01242 14.1373 6.99717 14.2298 7.00043 14.3226C7.0037 14.4154 7.02542 14.5066 7.06429 14.5907C7.10317 14.6747 7.15838 14.75 7.22663 14.8118C7.29487 14.8736 7.37474 14.9208 7.46141 14.9506V14.9506ZM9.93103 12.4435H9.02641L9.46062 11.2038L9.93103 12.4435Z" fill="black"/>
<path d="M18.9019 9.65538C18.8158 9.46176 18.6701 9.29619 18.4832 9.17956C18.2963 9.06293 18.0765 9.00046 17.8515 9H14.7695C14.5724 9 14.3834 9.07294 14.244 9.20277C14.1046 9.33261 14.0263 9.5087 14.0263 9.69231C14.0263 9.87592 14.1046 10.052 14.244 10.1818C14.3834 10.3117 14.5724 10.3846 14.7695 10.3846H17.138L14.3335 13.1077C14.168 13.2695 14.058 13.4736 14.0174 13.6938C13.9768 13.9141 14.0075 14.1406 14.1056 14.3446C14.1834 14.5325 14.3188 14.6948 14.4951 14.8114C14.6713 14.9279 14.8805 14.9935 15.0966 15H18.2379C18.4351 15 18.6241 14.9271 18.7635 14.7972C18.9029 14.6674 18.9812 14.4913 18.9812 14.3077C18.9812 14.1241 18.9029 13.948 18.7635 13.8182C18.6241 13.6883 18.4351 13.6154 18.2379 13.6154H15.8695L18.6542 10.9108C18.8223 10.7468 18.9354 10.5406 18.9794 10.3176C19.0234 10.0945 18.9965 9.86435 18.9019 9.65538V9.65538Z" fill="black"/>
<path fill-rule="evenodd" clip-rule="evenodd" d="M21.2195 24H21.2286C22.2288 24 23.1881 23.6027 23.8954 22.8954C24.6027 22.1881 25 21.2288 25 20.2286V3.77144C25 2.77119 24.6027 1.81192 23.8954 1.10464C23.1881 0.397355 22.2288 9.62284e-06 21.2286 9.62284e-06H21.2233C21.2221 3.2262e-06 21.2208 1.55269e-08 21.2195 0L4.77143 9.62284e-06H4.76233C3.76209 9.62284e-06 2.80281 0.397355 2.09553 1.10464C1.38825 1.81192 0.990906 2.77119 0.990906 3.77144V20.2286C0.990906 21.2288 1.38825 22.1881 2.09553 22.8954C2.80281 23.6027 3.76209 24 4.76233 24H13H21.2195ZM13 21.9429H21.2195C21.6741 21.9429 22.1102 21.7623 22.4317 21.4408C22.7532 21.1193 22.9338 20.6832 22.9338 20.2286V12C22.9338 11.9541 22.9368 11.9085 22.9429 11.8635V3.77144C22.9429 3.31678 22.7622 2.88075 22.4408 2.55926C22.1511 2.2696 21.7685 2.09431 21.363 2.06243C21.3021 2.0592 21.253 2.05715 21.2195 2.05715H4.77143C4.31677 2.05715 3.88074 2.23776 3.55925 2.55926C3.23775 2.88075 3.05714 3.31678 3.05714 3.77144V12C3.05714 12.0459 3.05407 12.0915 3.04805 12.1365V20.2286C3.04805 20.6832 3.22866 21.1193 3.55015 21.4408C3.87164 21.7623 4.30768 21.9429 4.76233 21.9429H13Z" fill="black"/>
</svg>
